<?xml version="1.0" encoding="utf-8"?>
<!-- Generator: Adobe Illustrator 23.0.6, SVG Export Plug-In . SVG Version: 6.00 Build 0)  -->
<svg version="1.1" id="Layer_1" xmlns="http://www.w3.org/2000/svg" xmlns:xlink="http://www.w3.org/1999/xlink" x="0px" y="0px"
	 viewBox="0 0 816.4 65" style="enable-background:new 0 0 816.4 65;" xml:space="preserve">
<style type="text/css">
	.st0{display:none;fill:none;stroke:#000000;stroke-width:10;stroke-miterlimit:10;}
	.st1{fill:#FFFFFF;}
	.st2{fill:#EEEEEE;}
	.st3{fill:#474747;}
	.st4{fill:#F0F0F0;}
	.st5{fill:none;stroke:#F0F0F0;stroke-width:12;stroke-miterlimit:10;}
	.st6{fill:#F0F0F0;stroke:#F0F0F0;stroke-width:2;stroke-miterlimit:10;}
	.st7{fill:#F0F0F0;stroke:#F0F0F0;stroke-width:6;stroke-miterlimit:10;}
</style>
<g>
	<path class="st3" d="M66.4,53.1H46.3l-5.6,9.8h-36L47.6,3.5H86l42.9,59.4H92l-5.6-9.8H66.4z M66.4,18.9L53.9,40.2H79L66.4,18.9z"/>
	<path class="st3" d="M189.8,3.5c18.3,0,32.3,2.6,42.2,7.7c9.9,5.1,14.9,12.3,14.9,21.5c0,6.7-2.2,12.2-6.5,16.5
		c-1.3,1.3-2.3,2.4-3,3.3c-0.5,0.4-2.2,1.1-5.4,2.1l14.9,3.9l-10.4,5.9c-0.2,0.1-3.4-0.7-9.5-2.3c-6.1-1.6-9.3-2.4-9.5-2.3
		c-4.3,1.2-8.4,2.1-12.4,2.5c-4,0.4-9.2,0.7-15.5,0.7c-4.6,0-9.8-0.3-15.6-0.8c-5.8-0.6-10.5-1.3-13.9-2.3
		c-4.3-1.2-8.1-2.6-11.4-4.2c-3.3-1.6-6.1-3.4-8.5-5.6c-5-4.4-7.5-10-7.5-16.7c0-9.3,5-16.6,15.1-21.8c10-5.2,24-7.8,41.9-7.8H189.8
		z M189.8,49.6c7.3,0,13-1.2,17-3.7c4-2.5,6-6.9,6-13.4c0-2.8-0.5-5.2-1.5-7.1c-1-1.9-2.6-3.5-4.8-4.7c-1.7-1-3.9-1.9-6.4-2.6
		c-3.6-1.1-7-1.6-10.4-1.6c-3.2,0-6.7,0.6-10.5,1.7c-2.9,0.8-5.1,1.7-6.5,2.6c-4.1,2.5-6.2,6.7-6.2,12.6c0,5.7,2,9.9,6.1,12.5
		C177,48.3,182.7,49.6,189.8,49.6z"/>
	<path class="st3" d="M282.6,3.5h36.9l25.7,42.7l25.3-42.7h35.8l-42.3,59.4h-38.2L282.6,3.5z"/>
	<path class="st3" d="M408,3.5h35.3v59.4H408V3.5z"/>
	<path class="st3" d="M450.5,3.5h94.4v12.7h-59.1v9.5h54.8v12.1h-54.8v11.7h60.8v13.5h-96.1V3.5z"/>
	<path class="st3" d="M550.5,3.5H584l12,33.1l17.6-33.1h33.3l17.7,33.1l12.1-33.1H710l-25.1,59.4h-34.6l-20-37.3l-20,37.3h-34.5
		L550.5,3.5z"/>
	<path class="st3" d="M713.1,42.9l32.5-1.1c0.6,2.7,2.1,4.8,4.3,6.2c3.4,2.3,8.4,3.4,15,3.4c2.4,0,4.5-0.1,6.5-0.4
		c1.9-0.3,3.6-0.7,4.8-1.3c2.6-1.1,3.8-2.5,3.8-4.1c0-1.6-1.2-2.9-3.7-3.9c-1.4-0.6-3.5-1.2-6.3-1.8c-2.8-0.6-6.5-1.1-11.1-1.6
		c-14.9-1.7-25.5-4.1-32-7c-6.5-2.9-9.7-6.6-9.7-11c0-3,1.6-5.8,4.8-8.4c3.2-2.6,8.2-4.7,14.9-6.2c6.7-1.5,15.8-2.2,27.1-2.2
		c7,0,13.2,0.3,18.7,1c5.5,0.7,10,1.7,13.6,3c7.4,2.8,11.8,7.1,13.2,13.1l-32.2,0.9c-0.8-2.6-2.6-4.5-5.4-5.7
		c-2.7-1.2-6.5-1.8-11.3-1.8c-3.9,0-6.9,0.4-9,1.3c-2,1-3,2.1-3,3.3c0,0.8,0.8,1.7,2.5,2.5c1.2,0.6,2.7,1.1,4.6,1.5
		c1.9,0.4,4.2,0.6,6.8,0.6c15.1,1.7,25.8,3.4,32.2,5.1c6.4,1.7,11.1,3.8,14,6.4c2.9,2.5,4.4,5.4,4.4,8.5c0,3.7-1.9,7.1-5.8,10.2
		c-3.9,3-9.4,5.4-16.5,7c-7.1,1.6-16,2.5-26.6,2.5c-18.7,0-31.7-1.9-39-5.7C718.1,53.4,714,48.7,713.1,42.9z"/>
</g>
</svg>
