<svg id="Layer_1" data-name="Layer 1" xmlns="http://www.w3.org/2000/svg" viewBox="0 0 872.6 245.78"><defs><style>.cls-1{fill:#fff;}</style></defs><title>aqvies eyes</title><path class="cls-1" d="M369.45,126.49C335.06,70.69,271,33.18,197.75,33.18c-73.65,0-137.94,37.88-172.21,94.13L57,114a362.56,362.56,0,0,1,281.2-.58Z"/><ellipse class="cls-1" cx="821.57" cy="190.89" rx="28.75" ry="17.25"/><path class="cls-1" d="M801.17,121.69c0,51.17-74.81,92.66-167.08,92.66S467,172.86,467,121.69,541.81,29,634.09,29,801.17,70.51,801.17,121.69ZM634.09,54.56c-40,0-72.5,29.69-72.5,66.31s32.46,66.31,72.5,66.31,72.49-29.69,72.49-66.31S674.13,54.56,634.09,54.56Z"/></svg>